<?xml version="1.0" encoding="UTF-8"?>
<svg width="109px" height="47px" viewBox="0 0 109 47" version="1.1" xmlns="http://www.w3.org/2000/svg" xmlns:xlink="http://www.w3.org/1999/xlink">
    <!-- Generator: Sketch 50.2 (55047) - http://www.bohemiancoding.com/sketch -->
    <title>logo/typemark/color</title>
    <desc>Created with Sketch.</desc>
    <defs>
        <polygon id="path-1" points="0.0172452351 0.127915474 4.62418661 0.127915474 4.62418661 6.06213342 0.0172452351 6.06213342"></polygon>
        <polygon id="path-3" points="0 0.0883369941 34.4349536 0.0883369941 34.4349536 45.5831387 0 45.5831387"></polygon>
    </defs>
    <g id="Page-1" stroke="none" stroke-width="1" fill="none" fill-rule="evenodd">
        <g id="Report---Update" transform="translate(-60.000000, -27.000000)">
            <g id="logo/typemark/color" transform="translate(60.000000, 27.000000)">
                <g id="Page-1">
                    <path d="M105.694638,36.419161 C105.366627,35.7396542 104.654645,35.2700419 103.828281,35.1831159 C75.7685242,32.2414134 53.5577172,34.7877087 38.3576262,38.0704014 C36.6105783,38.447434 35.5417257,40.2760599 36.1340467,41.9686431 C36.200564,42.1598096 36.2839747,42.3552164 36.3856864,42.5545101 C36.7101783,43.1902006 37.4555948,43.4813673 38.1369576,43.2757131 C60.7841746,36.4368289 86.6337262,36.4287017 105.007644,37.7523795 C105.633048,37.7976093 106.087759,37.2340038 105.840343,36.7212818 L105.694638,36.419161 Z" id="Fill-1" fill="#E6282B"></path>
                    <path d="M49.3321419,21.895631 C49.3099694,21.9663025 49.2645687,22.0394476 49.1952358,22.1150661 C48.6191042,22.7224879 48.115473,23.5115356 47.6843421,24.481149 C47.2539151,25.4507624 47.0290231,26.3246159 47.0057949,27.1005894 C47.0079065,27.1914023 46.9874938,27.2733813 46.9431489,27.3465263 C45.6406057,29.704482 44.5277602,30.9461808 43.5637867,31.0680892 C42.9679462,31.1437078 42.6645709,30.7733889 42.6526048,29.9543059 C42.6568281,28.9514768 42.9873031,27.6034173 43.6577556,25.9143677 C44.3285601,24.2253181 45.1563314,22.6903324 46.1424773,21.3132976 C47.1286232,19.9362627 48.0095379,19.2076392 48.7693841,19.1256603 C49.2680882,19.0719499 49.5253589,19.3977457 49.5404925,20.1002207 C49.5556261,20.7807876 49.4855893,21.3793754 49.3321419,21.895631 M79.3613754,22.292805 C80.1838675,20.8270774 81.0932897,19.5546365 82.0878822,18.4768956 C83.0824748,17.3995081 83.8630856,16.8602843 84.4173967,16.8556906 C84.6581262,16.8535705 84.7682845,16.9998605 84.746112,17.2938541 C84.6894491,18.0631138 84.0531351,19.146155 82.8593425,20.5514584 C81.6648461,21.9571152 80.6037362,22.6719578 79.6563041,22.6928059 C79.3955139,22.6984596 79.2695181,22.6337951 79.2779647,22.4981058 C79.2821881,22.4299078 79.3096397,22.3613564 79.3613754,22.292805 M108.64484,15.630953 C108.460774,15.4023305 108.200688,15.1627541 107.833259,14.9514462 C106.974868,14.4578055 106.204464,14.3214095 105.134203,14.6090426 C104.856872,14.7012689 104.612623,14.8415519 104.39301,15.0093968 C103.488867,15.5998575 101.813264,17.6705334 100.660297,19.1352009 C100.659241,19.1352009 98.4599453,22.1429814 96.9610177,24.1701943 C96.4978599,24.7963441 96.0628577,25.3249671 95.8288152,25.6348618 C95.7260477,25.7701978 94.7926933,26.8896349 94.669513,27.0235574 C94.2376783,27.4935231 93.8449093,27.8504143 93.4894462,28.0942311 C93.1336313,28.3384013 92.8277923,28.4631365 92.5701696,28.4687903 C92.3361272,28.4737373 92.2273766,28.3497087 92.2432141,28.0952912 C92.2632748,27.7723223 92.4666982,27.2313317 92.8577075,26.4744396 C93.248013,25.7171941 93.6752725,25.0090654 94.1401899,24.35076 C94.6054593,23.6924547 95.1682171,22.8995201 95.8330385,21.9740764 C96.497508,21.0486327 96.9170247,20.4712462 97.0849018,20.239797 C97.5744553,19.7016332 97.8398208,19.1874978 97.8771268,18.6966841 C97.9299183,18.0058698 97.5938122,17.4323703 96.8659929,16.9793658 C96.1371177,16.527068 95.1432291,16.1157597 93.883623,15.7521546 C93.7875425,15.7313065 93.7424937,15.6864301 93.746717,15.6185854 C93.7481248,15.5963239 93.7745205,15.5624016 93.8262562,15.5157584 C94.4682013,14.5779471 94.813458,13.8044472 94.8539315,13.1934918 C94.8965167,12.5602749 94.5871583,12.2468466 93.9262082,12.2578007 C93.2159861,12.2698149 92.4793682,12.6178722 91.7212817,13.3019726 C90.9621394,13.9864264 90.559516,14.8175236 90.5053167,15.791024 C90.4866637,16.1306007 90.5260814,16.4125801 90.6239217,16.6359022 C90.6429266,16.6790118 90.6735457,16.7147009 90.6992376,16.7528635 C89.9471342,17.9217707 88.5970786,19.9829059 87.5606048,21.5171849 C86.6972872,22.6765514 85.8082777,23.7779673 84.8921686,24.8203724 C83.860622,25.9807989 82.8033835,26.9083628 81.7176376,27.6044774 C80.6308358,28.3002386 79.7196539,28.65925 78.9745894,28.6772713 C78.0197665,28.7009462 77.5759656,28.1380475 77.6407232,26.9825679 C77.6804929,26.281153 77.904329,25.41472 78.3164549,24.3868025 C78.3453143,24.2959896 78.4065525,24.248993 78.5015772,24.2465195 C78.9436183,24.3256716 79.2828919,24.3631276 79.5186941,24.3578272 C81.1686056,24.3207246 82.8033835,23.6118892 84.4494236,22.2299073 C86.0947598,20.8489856 86.9943276,19.3984524 87.1189156,17.8602865 C87.1706513,17.2274229 87.0186117,16.6510965 86.661389,16.1313074 C86.3045182,15.6125784 85.850159,15.2238849 85.3007751,14.9669939 C84.7513912,14.7108096 84.1967281,14.5850143 83.6392495,14.590668 C82.3546555,14.6044489 80.947937,15.3327191 79.4433782,16.7793654 C77.9377636,18.2260116 76.7013858,19.9193016 75.7282619,21.8511079 C75.6550576,21.9966913 75.5888922,22.1387411 75.5209671,22.2822043 C75.5037219,22.3072927 75.4906999,22.3260206 75.4731028,22.3514624 C75.1292539,22.8496967 74.8054658,23.3189557 74.5024424,23.7595927 C74.1987151,24.2002297 73.8657765,24.6652484 73.5046824,25.1546487 C73.1421805,25.6440491 72.8074821,26.0878663 72.4988276,26.4853937 C72.1898212,26.8832744 71.8955963,27.2468795 71.6150973,27.5758554 C71.3345983,27.9058915 71.080847,28.160309 70.8531395,28.3408748 C70.6257839,28.5214405 70.4543874,28.614727 70.338598,28.6203807 C70.1291915,28.6306281 70.0288876,28.5225006 70.0366304,28.295645 C70.0570431,27.7521809 70.6233203,26.3984677 71.7650253,24.2436927 C72.9077861,22.0885643 74.0600493,20.1889135 75.2147762,18.5433268 C75.5487706,18.0571067 75.7233346,17.6899681 75.7356527,17.4404976 C75.752546,17.1005675 75.7029219,16.7744184 75.5864286,16.4613435 C75.4695833,16.1486219 75.3090971,15.8715895 75.103914,15.6291862 C74.8990828,15.3874895 74.654482,15.1924361 74.3722233,15.0440259 C74.0899645,14.8963224 73.8031305,14.8274176 73.5134809,14.8383717 C73.0563062,14.8560396 72.3411569,15.2694681 71.3768315,16.0811306 C70.4125061,16.8934999 69.3816634,17.9164703 68.2899344,19.1514554 C67.1978535,20.3871471 66.1321684,21.7171854 65.0942868,23.1412168 C65.0221383,23.2136551 64.9513977,23.2521711 64.881009,23.2567647 C64.78704,23.2627718 64.7409354,23.2239024 64.7426951,23.13945 C64.7430471,23.1178951 64.7550132,23.0963403 64.7792973,23.0737254 C66.1413189,20.3429774 67.5776006,17.6058689 69.0920138,14.8638135 C69.5562274,14.0235289 69.9729286,13.2857181 70.3410616,12.649321 C70.7306631,11.9758213 70.550468,11.1168088 69.9236565,10.6585039 L69.2380704,10.1574427 C68.6636985,9.73765383 67.8524686,9.93058712 67.5283285,10.5652175 C66.3377034,12.8952579 64.8715065,15.8143456 63.1638763,19.3344946 C62.8189716,20.0468637 62.4951835,20.7228369 62.1879367,21.3687747 C61.5016468,22.4761976 60.8396409,23.5161292 60.2005114,24.4868027 C59.3586624,25.7645441 58.4865462,26.9348646 57.5809954,27.9984712 C56.6761484,29.0627845 55.9870429,29.6186161 55.5020647,29.6631392 C55.1561041,29.6949414 54.9815401,29.4952943 54.9783726,29.0631378 C54.9748532,28.5857516 55.1853155,27.7408735 55.6157425,26.5295634 C56.0465214,25.31896 56.5959053,23.9899819 57.2698772,22.544749 C57.9434972,21.0998695 58.6716685,19.6528699 59.4572066,18.2051635 C59.5050709,18.1313118 59.5895373,18.0896156 59.7095501,18.0804283 C60.5028309,17.9966825 61.0437682,17.9348449 61.3306022,17.8910286 C61.9049741,17.7811343 62.4029743,17.5595791 62.8263624,17.2249494 C63.2490466,16.8899663 63.4644361,16.5758314 63.4693633,16.2807777 C63.4735866,16.0316605 63.2835371,15.8853705 62.9002705,15.8433209 C62.6598931,15.8373138 62.0598293,15.8436743 61.1000792,15.8677026 C60.9797145,15.8765365 60.9205879,15.8309534 60.9212918,15.7305998 C60.9216438,15.7055114 60.9336098,15.6669954 60.9582459,15.6154052 C61.1152127,15.3581608 61.2647888,15.1164642 61.4059181,14.8899619 C61.8268426,14.2146954 61.6543903,13.327061 61.0124452,12.8581554 L60.4954401,12.4800627 C59.9432406,12.0761749 59.1650934,12.2373059 58.8187809,12.82812 C58.3123341,13.6913727 57.7196611,14.7327178 57.0453372,15.9539219 C56.9981768,16.0899646 56.9288439,16.1616962 56.8352269,16.16947 C55.830428,16.2772441 55.1180942,16.3977391 54.6989294,16.5260079 C54.4427145,16.6168208 54.3156629,16.7864325 54.3181265,17.0341362 C54.3198862,17.2595784 54.4388431,17.4963281 54.6742934,17.7450919 C54.9093917,17.9945624 55.1782766,18.1507465 55.4820039,18.2136441 C55.5988492,18.2260116 55.6579757,18.2662944 55.6583276,18.333079 C55.6583276,18.3783088 55.6460096,18.4136446 55.6227813,18.4376729 C54.7749493,19.9299023 53.8521532,21.5747822 52.861432,23.3751395 C52.7044652,23.6606525 52.5555931,23.9292043 52.4105923,24.1896289 C52.2518658,24.4051771 52.0829329,24.6281458 51.8932353,24.8677223 C51.364968,25.5341549 50.8715431,25.9829191 50.4101451,26.2133083 C50.3865648,26.2161351 50.3629846,26.2182553 50.3397563,26.2207288 C50.2468432,26.2306228 50.210945,26.1889266 50.2327655,26.0959935 C50.2324135,26.0733786 50.2429719,26.0493503 50.2658482,26.0239086 C51.1816054,23.9730207 51.6401878,22.2242536 51.6159037,20.772307 C51.5986585,19.7065803 51.3255503,18.9843172 50.7941155,18.6062245 C50.7216151,18.545447 50.672695,18.4825493 50.647707,18.4168248 C50.0029463,17.074419 48.9812541,16.4747711 47.5949484,16.6274216 C46.5676251,16.7408494 45.4987725,17.3185892 44.4028202,18.3602876 C43.306516,19.4023393 42.3812563,20.62319 41.6270412,22.0196595 C41.0744898,23.0422766 40.6025335,24.0942224 40.2069489,25.1730233 C40.0302732,25.4906919 39.8300173,25.8525301 39.601254,26.267372 C39.2577571,26.8903416 38.9533259,27.4468799 38.6865527,27.9355735 C38.4197794,28.4242672 38.1009186,28.9267418 37.7296181,29.4437041 C37.3586696,29.961373 37.0415684,30.4055436 36.7779627,30.7765692 C36.514005,31.1483014 36.2401929,31.4574894 35.9558225,31.7055465 C35.6711001,31.9536035 35.4264993,32.0931798 35.2213162,32.1242753 C34.9932568,32.158551 34.8686688,32.0172079 34.8482561,31.6981259 C34.8218603,31.2928247 34.9872738,30.7147316 35.347664,29.9641999 C35.7077023,29.2140216 36.0550706,28.4956454 36.389065,27.8080114 C36.7223556,27.1210841 37.1365932,26.2726724 37.6349453,25.2648963 C38.1332974,24.2571203 38.447583,23.6288503 38.5718191,23.3790265 C39.0036538,22.7981065 39.2095408,22.2705435 39.1856087,21.7952774 C39.1497104,21.0931557 38.7435675,20.5602924 37.9626047,20.2005743 C37.1819939,19.8412095 36.164525,19.5564032 34.9105501,19.3514558 C34.7419691,19.3306077 34.7018475,19.2567559 34.7894815,19.1291938 C35.322676,18.1143506 35.5753715,17.3019814 35.5387693,16.6906726 C35.5007594,16.0571023 35.1590222,15.7853703 34.5139097,15.8797168 C34.0841866,15.9426144 33.638626,16.1461484 33.1800435,16.4889054 C32.7211091,16.832369 32.3272842,17.3101086 31.998217,17.921064 C31.6687978,18.5327261 31.5290762,19.1666497 31.5758847,19.8224816 C31.6001688,20.1617049 31.6913222,20.4337903 31.848641,20.6376777 C31.8750367,20.6797273 31.8898184,20.7171832 31.892282,20.7511055 C31.8947456,20.7850278 31.8855951,20.8267241 31.8655343,20.8754874 C31.324597,22.177257 30.7449459,23.2210756 29.8788128,24.970196 C29.7165668,25.2970519 29.8981697,25.6917524 30.251521,25.7793851 L30.3303564,25.7988197 C30.9149347,25.9436964 31.5188698,25.6412222 31.7567837,25.085744 C32.5109988,23.328143 32.8224688,22.4235473 33.2933693,21.4101176 C33.3549595,21.2634741 33.4323871,21.1832619 33.5267079,21.1687743 C33.7618062,21.1330851 33.9986643,21.1150639 34.2358742,21.1136505 C34.4734362,21.1125904 34.7205005,21.1673608 34.9770674,21.2779618 C35.2332823,21.3889161 35.3680767,21.5578211 35.3818025,21.78397 C35.4029191,22.1235467 35.1738039,22.7539368 34.7007917,23.6751402 C34.2274276,24.5970503 33.7364663,25.5617168 33.2286117,26.5701995 C32.7207572,27.5786823 32.2671019,28.6652571 31.8676459,29.8292173 C31.467838,30.9931774 31.2992571,31.9380558 31.3531044,32.6627924 C31.3802041,33.024984 31.4636147,33.3719812 31.6033363,33.7037841 C31.742706,34.0362936 31.9250127,34.327107 32.1495527,34.5769308 C32.3733888,34.8271081 32.6443854,35.0122675 32.9614866,35.1331158 C33.2789397,35.2543175 33.6178613,35.286473 33.9796593,35.2299358 C34.5769076,35.1366494 35.2125177,34.7779914 35.8910649,34.153255 C36.5692601,33.528872 37.3523346,32.5762197 38.2497907,31.2963583 C38.6056056,30.7885833 38.9146121,30.3327519 39.1968709,29.9051892 C39.1979267,29.9942353 39.1901839,30.0914086 39.1944072,30.1776279 C39.2595168,31.4239204 39.6674194,32.3931805 40.412132,33.0896484 C41.1568446,33.7864697 42.0036209,34.0716294 42.9584438,33.9479542 C43.9132667,33.824279 44.8811115,33.3101436 45.8718327,32.405548 C46.8622019,31.5009524 47.790629,30.3649075 48.6595777,28.9945865 C48.7039226,28.9214414 48.7954279,28.8769184 48.9340937,28.861724 C49.8276784,28.7631372 50.7092971,28.3048323 51.5873963,27.4991768 C51.7373243,27.4670213 51.8872522,27.4263851 52.0371802,27.3747949 C52.0597046,27.3500599 52.0829329,27.3359256 52.1061611,27.3334521 C52.175846,27.3263849 52.2110403,27.3458196 52.2117442,27.3910494 C52.2120962,27.4140176 52.200482,27.449 52.1783096,27.4967033 C51.9594007,28.4044792 51.8562812,29.1309825 51.8647278,29.6751533 C51.8809172,30.6733887 52.1290375,31.4369946 52.6073288,31.9680912 C53.0845643,32.4991878 53.6877956,32.7285169 54.4201901,32.6585521 C55.0839557,32.5949477 55.8416902,32.1839927 56.7014884,31.4271006 C57.3793317,30.8302795 57.9969927,30.155013 58.5819229,29.4362835 C58.5601024,29.4924674 58.5361702,29.5518315 58.5164614,29.6037751 C58.4460727,29.8369911 58.4112303,30.0666736 58.4108783,30.2931759 C58.4094705,30.8377 58.6153575,31.2910579 59.0271315,31.6536029 C59.4392574,32.0168546 59.8615897,32.1811659 60.2979998,32.1468902 C60.664373,32.1182682 60.8843377,31.9430028 60.9564862,31.6200339 C62.1263466,29.4907006 63.7660517,27.0316846 65.9192425,24.2620673 C68.0727852,21.49351 69.9282318,19.426721 71.4384216,18.0468593 C71.5123298,17.9754811 71.573216,17.9390852 71.6214323,17.9369651 C71.6932288,17.9337849 71.7280712,17.9662938 71.7252556,18.0341384 C71.7234959,18.0800749 71.7101221,18.1143506 71.685486,18.1380256 C70.8485642,19.3963322 70.2843987,20.2726592 69.982783,20.762413 C69.6815193,21.25252 69.1912619,22.0917445 68.5190497,23.2818531 C67.8468375,24.4719617 67.3685462,25.4959922 67.0774888,26.3500577 C66.7864315,27.2048299 66.633688,27.9613686 66.6167947,28.6186139 C66.5918067,29.5938811 66.8156428,30.338759 67.2847836,30.8546612 C67.7542763,31.3705634 68.2751528,31.6129668 68.8512844,31.5818713 C70.1316551,31.5147333 71.8801108,29.8818676 74.1944918,26.7313306 C74.1888607,26.8076559 74.1790062,26.8857479 74.1754868,26.9606597 C74.1142486,28.2755036 74.4433159,29.3200289 75.1560016,30.0970624 C75.8686873,30.8748026 76.7988742,31.2447681 77.9550088,31.2133192 C79.4338757,31.1726831 80.9317476,30.5596076 82.4683332,29.3730325 C84.0049189,28.1871642 85.4063582,26.7592459 86.6747628,25.0832705 C87.5366726,23.9726673 88.1941032,23.0825594 88.644591,22.408353 C89.5100203,21.2214246 90.6605238,19.5087 92.1235532,17.369826 C92.1886628,17.3754797 92.2474374,17.3783066 92.2960056,17.37972 C92.7060198,17.3910275 93.1125147,17.4256565 93.5147862,17.5429713 C93.9170577,17.660286 94.1067553,17.8899685 94.0842309,18.2302519 C94.0620584,18.5715954 93.7498845,19.1705367 93.154044,20.0295492 C92.5578516,20.888915 91.9426542,21.78397 91.3084519,22.7147141 C90.6738977,23.6454581 90.0748897,24.6624215 89.5100203,25.7645441 C88.9455028,26.8673733 88.6459988,27.8048312 88.6058772,28.5751509 C88.5801853,29.0733852 88.6547974,29.5348703 88.8300653,29.9585462 C89.0053332,30.3829287 89.2766817,30.7302793 89.6441108,31.0020114 C90.0115398,31.2740968 90.4384474,31.4027189 90.9258893,31.3899981 C91.5495333,31.3737436 92.2463815,31.108372 93.0206574,30.5938832 C93.7945813,30.0790411 94.5604105,29.4030679 95.3188489,28.5652569 C95.3864221,28.4906984 97.6817981,25.6719643 98.1178562,25.0161325 C98.5486351,24.4005835 101.088964,20.7885614 102.798002,18.7111717 C102.781812,18.9882041 102.767383,19.3309611 102.761752,19.7383824 C102.746618,20.9122366 103.14889,24.5557075 102.997906,26.6624259 C102.847274,28.7694976 101.301186,29.9687935 99.3489548,29.8723269 C98.2579297,29.8182632 97.5927564,29.2468838 97.2182884,28.7528898 C96.9128014,28.3504154 96.2504436,28.504126 96.2015234,29.0080141 C96.1842782,29.1853996 96.2275672,29.3684389 96.3342062,29.5260364 C97.9813021,31.9585505 100.780661,31.8426492 100.780661,31.8426492 C100.780661,31.8426492 103.895714,31.7627904 105.491778,29.57904 C107.087842,27.3952897 106.369877,22.6708977 106.308639,20.0532241 C106.26711,18.2850224 107.548184,17.3178824 108.384402,16.8761854 C108.847912,16.6313085 108.97074,16.0359008 108.64484,15.630953" id="Fill-3" fill="#E6282B"></path>
                    <path d="M41.9918307,8.26341032 C41.8665388,8.33584864 41.728225,8.38072507 41.5768893,8.39768623 C41.366779,8.42100784 41.1285132,8.40086645 40.861388,8.33655536 C40.5946148,8.27224426 40.3084846,8.15634295 40.0037015,7.9881447 L39.9646358,8.94574397 C40.5168352,9.20828872 41.0929669,9.30616879 41.6954943,9.23938419 C42.0597559,9.1983947 42.3743934,9.09062061 42.639055,8.91606193 C42.9033646,8.74079653 43.0983413,8.51606105 43.2236333,8.24150215 C43.3489252,7.96623653 43.3950298,7.67436309 43.3605393,7.36482178 C43.3355513,7.13937959 43.2757209,6.94432616 43.1810481,6.7778947 C43.0853194,6.61216996 42.9702339,6.46446645 42.8340317,6.33619762 C42.6971257,6.20722207 42.5489574,6.09379426 42.389527,5.99485412 C42.2293927,5.89591397 42.0706661,5.80262755 41.9136993,5.71464149 C41.6627635,5.57718536 41.4808087,5.46587769 41.3681867,5.38036514 C41.254509,5.29449923 41.1665231,5.20898667 41.1031732,5.12347412 C41.0398234,5.03796156 41.0021654,4.94326171 40.9901993,4.83937455 C40.9648594,4.608632 41.0306728,4.41145842 41.1872877,4.2489139 C41.3431987,4.08601601 41.5614038,3.98884266 41.8415508,3.95739382 C42.0439184,3.93477893 42.2554365,3.94608638 42.4778648,3.99131616 C42.6999412,4.03619258 42.9107554,4.11181112 43.1096035,4.21746507 L43.156412,3.29343477 C42.9515809,3.21357594 42.725985,3.156332 42.4792726,3.12170295 C42.2329121,3.08601382 41.9946463,3.08142018 41.7644752,3.10721528 C41.4061966,3.1471447 41.0817047,3.25809901 40.792759,3.4400782 C40.5038133,3.6220574 40.28772,3.85138653 40.1434231,4.12806558 C39.9994782,4.40509799 39.9449269,4.69979828 39.9801213,5.01216645 C40.0044054,5.23442842 40.0659955,5.43018857 40.1662994,5.60050696 C40.2666033,5.76976528 40.3950627,5.92559601 40.5544932,6.0676458 C40.7132197,6.20898886 40.9697866,6.37966061 41.3241938,6.57966105 C41.4515974,6.6535128 41.5747776,6.72630448 41.6930306,6.79732937 C41.8116356,6.86764755 41.9186265,6.94291273 42.0136512,7.02171149 C42.1093799,7.10086361 42.1875114,7.1860228 42.2487496,7.27754244 C42.3092838,7.36906207 42.3469418,7.4740093 42.3603157,7.59203076 C42.3765051,7.73549397 42.3504612,7.86517623 42.2821842,7.98143091 C42.2142591,8.09697886 42.1171227,8.19132536 41.9918307,8.26341032" id="Fill-5" fill="#211D1A"></path>
                    <path d="M48.9554567,4.54986862 C49.1141832,4.11559205 49.3397791,3.77248176 49.6329481,3.52053774 C49.9250612,3.26930045 50.2551843,3.12725066 50.6236692,3.09474176 C50.9150785,3.06965336 51.1793881,3.11594322 51.4141345,3.23467139 C51.6499367,3.35339957 51.8378745,3.53325862 51.9797078,3.77389519 C52.1208372,4.0141784 52.2049517,4.29686453 52.2334591,4.62124687 C52.2746365,5.09474614 52.2204372,5.54598388 52.0712131,5.97425336 C51.9209332,6.4021695 51.6985049,6.74633986 51.4021684,7.00711782 C51.1065358,7.26718906 50.7757088,7.41347913 50.4107434,7.44528132 C50.1158146,7.47107643 49.8497453,7.42478658 49.6132392,7.30641176 C49.3756773,7.18768358 49.1849239,7.00570439 49.0388673,6.75976745 C48.8935146,6.51383052 48.8051768,6.22160373 48.7759655,5.88308709 C48.7365478,5.42902249 48.7967301,4.98449855 48.9554567,4.54986862 M48.1899794,7.24987453 C48.4349321,7.63044074 48.7590722,7.91524701 49.1623995,8.10464672 C49.564671,8.29404643 50.0038966,8.36754482 50.4786685,8.32655534 C51.049169,8.27637855 51.5584314,8.08026504 52.0075114,7.73856818 C52.4558875,7.39651796 52.7909377,6.94740037 53.0109025,6.39050869 C53.231923,5.83432373 53.3142778,5.22584183 53.256911,4.56541636 C53.2139739,4.07212906 53.0739004,3.63714577 52.8377462,3.26152658 C52.6005363,2.88590738 52.2858987,2.60569475 51.89137,2.42124205 C51.4978971,2.23678935 51.0632467,2.1654111 50.5884749,2.20675395 C50.1531207,2.24526993 49.7508492,2.36929847 49.3834201,2.57883957 C49.0149351,2.78908738 48.7017054,3.07000672 48.4437307,3.42230431 C48.1854041,3.77460191 47.9964104,4.16930242 47.8778055,4.60569913 C47.7584966,5.04280256 47.718375,5.48661979 47.7577927,5.93785753 C47.8003779,6.43185154 47.9446747,6.86895497 48.1899794,7.24987453" id="Fill-7" fill="#211D1A"></path>
                    <polygon id="Fill-9" fill="#211D1A" points="59.0411741 4.94481648 60.9106983 4.81760772 60.9645457 3.97520305 59.1073395 4.10170509 59.2196095 2.43774385 61.3133218 2.29534072 61.3664653 1.45293604 58.2982212 1.66212378 57.8537164 7.63952203 58.8451415 7.57203072"></polygon>
                    <polygon id="Fill-11" fill="#211D1A" points="67.1458363 7.08065155 68.1555624 7.02800126 68.6046424 1.91844943 70.3791419 1.82622308 70.4576253 0.966857241 65.9161454 1.20325352 65.8366062 2.06155928 67.5949163 1.97074636"></polygon>
                    <polygon id="Fill-13" fill="#211D1A" points="76.2973898 6.71814192 78.1380547 2.56936958 79.3543717 6.61743499 79.7524199 6.60436075 82.4310624 0.519188416 81.4118338 0.553110752 79.7323591 4.58598177 79.7070192 4.58704185 78.5111149 0.648870679 78.0930059 0.662651628 76.3449022 4.65559323 76.327305 4.65594659 75.3738899 0.752404474 74.3887998 0.78491338 75.8915989 6.73156951"></polygon>
                    <path d="M88.4597151,1.49629303 L88.4804797,1.49593967 L88.9077392,4.01255296 L87.4781444,4.03481449 L88.4597151,1.49629303 Z M87.1846235,4.76096449 L89.0288078,4.73304923 L89.3321832,6.3383531 L90.3102344,6.32351208 L89.1189054,0.356007847 L88.1081234,0.371555584 L85.466083,6.39736383 L86.5240254,6.38110938 L87.1846235,4.76096449 Z" id="Fill-15" fill="#211D1A"></path>
                    <g id="Group-19" transform="translate(95.024765, 0.225442)">
                        <mask id="mask-2" fill="white">
                            <use xlink:href="#path-1"></use>
                        </mask>
                        <g id="Clip-18"></g>
                        <path d="M1.74036097,0.964949109 L2.26898022,0.964949109 C2.60438245,0.964949109 2.86094931,1.03491393 3.03727304,1.17519692 C3.21324483,1.31547991 3.30123072,1.51477364 3.30123072,1.77237137 C3.30123072,1.9649513 3.25125473,2.13314955 3.15130276,2.27731947 C3.05029495,2.42184276 2.90423837,2.53527057 2.7106694,2.61724955 C2.51780433,2.69958188 2.28165019,2.74021801 2.00185505,2.74021801 L1.49857574,2.73986466 L1.74036097,0.964949109 Z M1.37609937,3.53880634 L1.67243586,3.53845298 C1.82165994,3.53880634 1.94202464,3.55223393 2.03352997,3.57908911 C2.12573918,3.60629765 2.20879787,3.65329422 2.28376185,3.72149225 C2.35767,3.78933692 2.43650536,3.88651028 2.51780433,4.01265896 C2.59980718,4.13845429 2.73037824,4.38439123 2.91127724,4.74940969 L3.54125624,6.06178006 L4.62418661,6.06213342 L3.59299194,3.99357765 C3.52471489,3.84340064 3.44799119,3.71089152 3.36176502,3.59428349 C3.27589078,3.47838218 3.1710116,3.38756926 3.04712746,3.32219809 L3.04712746,3.28827575 C3.44975091,3.19781619 3.76825984,3.01301013 4.00124649,2.73421093 C4.23352925,2.45576509 4.35002257,2.13491634 4.35002257,1.77237137 C4.35002257,1.55717655 4.31518016,1.35046232 4.24655116,1.15222867 C4.17757022,0.953995022 4.06389245,0.779082978 3.90622172,0.62749254 C3.74819906,0.475902102 3.54125624,0.355053781 3.28680103,0.264594219 C3.03093806,0.173427942 2.71841216,0.128198161 2.3495753,0.128198161 L0.847832069,0.127844803 L0.0172452351,6.06178006 L1.02873107,6.06178006 L1.37609937,3.53880634 Z" id="Fill-17" fill="#211D1A" mask="url(#mask-2)"></path>
                    </g>
                    <polygon id="Fill-20" fill="#211D1A" points="108.439763 5.55471181 105.445075 5.50842196 105.713256 3.74092692 107.828085 3.77378918 107.963231 2.93880502 105.848754 2.90594276 106.107081 1.25788261 108.496426 1.29498517 108.631924 0.460354365 105.244115 0.407704073 104.315336 6.32750502 108.308488 6.38969597"></polygon>
                    <g id="Group-24" transform="translate(0.000000, 1.285515)">
                        <mask id="mask-4" fill="white">
                            <use xlink:href="#path-3"></use>
                        </mask>
                        <g id="Clip-23"></g>
                        <path d="M16.5381453,39.5841149 C13.7257642,41.3607973 11.3821719,42.1304103 8.63912371,42.1304103 C8.37164659,42.1304103 6.56934355,42.1501983 5.26468872,41.3014332 C4.36758455,40.7180397 3.75485079,39.7622072 3.75485079,38.8936541 C3.75485079,37.1791627 5.06443283,35.8773931 7.34537913,35.6947071 C11.3723175,35.3745651 14.0023918,37.1622015 16.4941523,39.0908276 L16.8573581,39.3823477 L16.5381453,39.5841149 Z M25.5514202,20.2384895 C31.6833331,16.265336 33.199506,12.891477 33.8467302,11.4508378 C34.3215021,10.393945 35.0820522,7.21195926 33.3909633,4.56177677 C32.3727905,2.88615473 30.5187518,1.32078028 27.6303509,0.615831737 C24.6782482,-0.104311182 21.4892875,-0.0276325693 18.6022943,0.48826962 C16.9284507,0.787563562 13.2291718,1.82466831 10.7947781,4.13739422 C8.17174264,6.62891911 6.90615355,10.3232735 8.31779923,12.1875885 C8.47019079,12.3893558 8.6971944,12.3720412 8.78799584,12.3564935 C9.02872524,12.3133839 9.23144474,12.1310513 9.30464901,11.8918282 C10.4766211,8.04694342 13.4315394,5.41902247 17.8487831,4.29216488 C21.442479,3.37484838 24.7349111,3.72643926 26.1462048,4.02184626 C28.0301588,4.41690013 29.4439161,5.52326298 29.9274866,7.04164086 C30.3874768,8.48369349 30.4135207,10.9695647 27.0514037,14.6215161 C23.1057643,18.9073912 18.043056,20.7363705 15.2929689,21.4448526 L14.7583666,21.5823087 L14.9881858,21.0784207 C15.5629096,19.8179939 16.1298907,18.6109241 16.6785708,17.4441371 C16.9678684,16.8292948 17.2490713,16.2307069 17.519012,15.6501403 C17.618612,15.4494331 17.8396326,14.9989021 18.1145005,14.440597 C18.7501106,13.1469546 19.6704431,11.274159 19.9836729,10.6540163 C20.4190271,9.79111685 20.2148998,8.80560232 19.4983427,8.31160831 L18.5512625,7.6589567 C18.2327536,7.43952159 17.8315379,7.37309035 17.4472155,7.47591743 C17.0709878,7.57697772 16.7619814,7.83068853 16.5993835,8.17203203 C16.1759953,9.06107991 9.65870424,23.319415 9.01957471,24.7547539 C8.8038333,25.2388539 8.84536264,25.7907985 9.12938111,26.2310822 C9.60028161,26.9611191 10.1954182,27.6144774 10.8971937,28.1731359 C11.063311,28.305645 11.275533,28.354055 11.4796603,28.3021114 C11.6774526,28.2533481 11.8386427,28.1173054 11.9209975,27.9296725 C12.3640945,26.9222498 13.2830192,24.8540474 13.2830192,24.8540474 L13.384027,24.8148247 C15.0986961,24.1476854 16.957662,23.7897341 18.9088372,23.750158 C20.9673552,23.7052816 22.4511493,24.2356714 23.3091877,25.3169459 C23.7593235,25.8837316 24.3453096,27.0388578 24.0327837,28.6402747 C23.5115552,31.3095385 21.4780253,34.971384 19.3649561,37.4038982 C19.3649561,37.4038982 18.342208,36.448419 16.8059743,35.2752716 C15.5836743,34.3417006 13.3945853,33.0275635 11.5366752,32.4268555 C9.86459123,31.8862182 8.57401415,31.6190798 6.49754706,31.7985855 C3.17731139,32.085512 0.508171326,34.1929371 0.0502927367,37.5911777 C-0.278774505,40.0353527 1.00018844,43.1318259 4.07406361,44.5431364 C5.1101855,44.9749395 6.58482907,45.4487921 8.34173139,45.5572729 C10.3541447,45.6816548 12.7765724,45.3502053 15.0145815,44.7420768 C17.076267,44.1820049 19.0010464,43.0138044 20.4165635,42.1424244 C20.6213946,42.2721067 20.8329127,42.3911882 21.0549891,42.4869482 C25.9850147,44.6106277 29.8644887,42.3328842 31.7699112,40.0417131 C32.3034577,39.400369 32.6363963,38.7653852 32.844043,38.2180342 C33.2273095,37.2084914 32.9985462,36.0572521 32.2415156,35.2894059 C32.2348287,35.2823387 32.2274378,35.2752716 32.2207509,35.2682044 C31.9427155,34.9894052 31.5756383,34.8205003 31.2331973,34.7180266 C30.7056338,34.5607824 30.1425241,34.8042458 29.8979233,35.2992999 C29.2732235,36.5643204 27.8520753,39.0798736 26.0617384,40.0473668 C25.4377424,40.3844701 24.7401903,40.4272263 24.0609392,40.3017844 C23.7283525,40.2403001 23.4087877,40.1247522 23.1036526,39.9777554 C23.5259849,39.5293445 23.9103073,39.1014284 24.199253,38.7731591 C24.6053959,38.3113206 24.9886624,37.8304009 25.3377904,37.3240393 C27.2477882,34.5565421 28.0188966,31.8487623 28.2511794,30.8508803 C29.0845817,27.2773742 27.8812867,23.105987 24.0577717,21.6095173 L23.5231694,21.4003295 L24.0299681,21.1296576 C24.586039,20.8331905 25.0836872,20.5416704 25.5514202,20.2384895 Z" id="Fill-22" fill="#E6282B" mask="url(#mask-4)"></path>
                    </g>
                </g>
            </g>
        </g>
    </g>
</svg>